# xmcd
#
# Track frame offsets:
#	150
#	30601
#	38274
#	55931
#	65547
#	92432
#	105102
#	111887
#	140424
#	165028
#	188686
#	211832
#	227284
#	244717
#	257016
#	285319
#
# Disc length: 3943 seconds
# Revision: 4
# Processed by: cddbd v1.5.2PL0 Copyright (c) Steve Scherf et al.
# Submitted via: dBpowerAMP V12.0
#
DISCID=b70f6510
DTITLE=Krzak - Blues Rock Band
DYEAR=1981
DGENRE=Bass
TTITLE0=Blues E Dur
TTITLE1=Lidek
TTITLE2=Czakuś
TTITLE3=Chwile Z B.
TTITLE4=Dla Fredka
TTITLE5=Skałki
TTITLE6=Łatka
TTITLE7=Blues H Moll
TTITLE8=Przewrotna Samba
TTITLE9=Dżemowa Maszynka
TTITLE10=Przewrotna Samba
TTITLE11=Dla Fredka (Studio)
TTITLE12=Czakus (Studio)
TTITLE13=Maszkaron
TTITLE14=Tajemniczy Swiat Mariana (Studio)
TTITLE15=Kołysanka Dla MacIusia
EXTD=
EXTT0=
EXTT1=
EXTT2=
EXTT3=
EXTT4=
EXTT5=
EXTT6=
EXTT7=
EXTT8=
EXTT9=
EXTT10=
EXTT11=
EXTT12=
EXTT13=
EXTT14=
EXTT15=
PLAYORDER=
